<svg width="36" height="28" viewBox="0 0 36 28" fill="none" xmlns="http://www.w3.org/2000/svg">
<path fill-rule="evenodd" clip-rule="evenodd" d="M18 27.3334C25.3638 27.3334 31.3334 21.3639 31.3334 14.0001C31.3334 13.8008 31.329 13.6026 31.3204 13.4055C31.7465 13.0237 32.147 12.6441 32.5198 12.2687C33.0062 11.7787 33.0033 10.9873 32.5134 10.5009C32.056 10.0467 31.3357 10.0191 30.8462 10.4163C30.3371 8.58755 29.448 6.91715 28.2694 5.4955C28.7679 5.41026 29.2393 5.34742 29.6812 5.30675C30.3686 5.24348 30.8746 4.63489 30.8113 3.94744C30.7481 3.25999 30.1395 2.754 29.452 2.81727C28.7457 2.88229 27.9953 2.99405 27.2103 3.14876C26.8779 3.21427 26.6024 3.40597 26.4238 3.66428C24.1275 1.79049 21.195 0.666748 18 0.666748C10.6362 0.666748 4.66671 6.63628 4.66671 14.0001C4.66671 14.4628 4.69028 14.9201 4.73629 15.3706C4.31649 15.2554 3.84835 15.363 3.51898 15.6933C2.9609 16.2529 2.45998 16.8078 2.02504 17.3522C1.59416 17.8916 1.68211 18.6782 2.22149 19.1091C2.76087 19.5399 3.54742 19.452 3.97831 18.9126C4.31447 18.4918 4.70781 18.0504 5.15637 17.5929C5.67928 19.4661 6.60098 21.173 7.8242 22.6162C7.44711 22.8947 7.24301 23.3747 7.34002 23.8651C7.474 24.5423 8.13161 24.9827 8.80884 24.8487C9.1707 24.7771 9.54096 24.6962 9.91879 24.6062C12.161 26.3172 14.9618 27.3334 18 27.3334ZM9.91879 24.6062C9.15074 24.0201 8.44823 23.3525 7.8242 22.6162C7.96792 22.5101 8.13677 22.4332 8.32366 22.3962C9.98485 22.0676 11.8852 21.514 13.9264 20.7478C14.5727 20.5051 15.2933 20.8324 15.536 21.4787C15.7786 22.125 15.4514 22.8456 14.805 23.0883C13.0888 23.7326 11.4422 24.2433 9.91879 24.6062ZM30.8462 10.4163C30.8115 10.4445 30.7779 10.4748 30.7457 10.5073C29.6016 11.6596 28.1329 12.8895 26.398 14.1256C25.8357 14.5262 25.7047 15.3067 26.1053 15.8689C26.5058 16.4312 27.2864 16.5623 27.8486 16.1617C29.1349 15.2453 30.3011 14.3187 31.3204 13.4055C31.2751 12.3744 31.1127 11.3736 30.8462 10.4163ZM32.8944 2.96549C32.2227 2.80637 31.5491 3.22196 31.39 3.89373C31.2309 4.5655 31.6465 5.23907 32.3183 5.39818C32.975 5.55373 33.228 5.7855 33.322 5.93578C33.4276 6.10456 33.5438 6.54561 33.0606 7.51571C32.7528 8.13364 33.0042 8.88411 33.6221 9.19192C34.24 9.49973 34.9905 9.24832 35.2983 8.63038C35.9277 7.3668 36.237 5.88152 35.4414 4.60979C34.8678 3.69298 33.9027 3.20428 32.8944 2.96549ZM2.69139 21.0836C2.90099 20.4259 2.53769 19.7227 1.87992 19.5131C1.22215 19.3035 0.519008 19.6668 0.309405 20.3246C-0.0100971 21.3272 -0.0440604 22.429 0.558181 23.3915C1.31296 24.5979 2.73593 25.0689 4.1485 25.2041C4.83571 25.2699 5.44613 24.7661 5.5119 24.0789C5.57768 23.3917 5.0739 22.7813 4.38668 22.7155C3.22943 22.6048 2.80595 22.2708 2.67755 22.0655C2.59469 21.9331 2.50802 21.6591 2.69139 21.0836ZM24.2508 18.5068C24.8433 18.1525 25.0364 17.385 24.6822 16.7924C24.3279 16.1999 23.5603 16.0068 22.9678 16.3611C22.1652 16.841 21.329 17.3137 20.4635 17.7748C19.5742 18.2486 18.6888 18.6916 17.8138 19.1026C17.189 19.3961 16.9204 20.1406 17.2139 20.7654C17.5074 21.3903 18.2519 21.6589 18.8767 21.3654C19.7899 20.9365 20.7129 20.4746 21.639 19.9812C22.5404 19.5009 23.4125 19.008 24.2508 18.5068Z" fill="white"/>
</svg>
