<svg width="36" height="28" viewBox="0 0 36 28" fill="none" xmlns="http://www.w3.org/2000/svg">
<path fill-rule="evenodd" clip-rule="evenodd" d="M18 27.3333C25.3638 27.3333 31.3333 21.3638 31.3333 14C31.3333 13.8007 31.329 13.6025 31.3203 13.4054C31.7465 13.0235 32.147 12.644 32.5197 12.2685C33.0061 11.7786 33.0033 10.9872 32.5134 10.5008C32.0559 10.0466 31.3356 10.019 30.8462 10.4162C30.3371 8.58743 29.448 6.91703 28.2693 5.49538C28.7678 5.41014 29.2393 5.3473 29.6811 5.30663C30.3686 5.24335 30.8746 4.63477 30.8113 3.94732C30.748 3.25987 30.1394 2.75388 29.452 2.81715C28.7457 2.88216 27.9953 2.99393 27.2103 3.14863C26.8778 3.21415 26.6023 3.40585 26.4238 3.66416C24.1274 1.79036 21.195 0.666626 18 0.666626C10.6362 0.666626 4.66667 6.63616 4.66667 14C4.66667 14.4627 4.69024 14.9199 4.73625 15.3705C4.31645 15.2552 3.84831 15.3629 3.51894 15.6931C2.96086 16.2528 2.45994 16.8077 2.025 17.3521C1.59412 17.8915 1.68207 18.6781 2.22145 19.1089C2.76083 19.5398 3.54738 19.4519 3.97827 18.9125C4.31443 18.4917 4.70777 18.0503 5.15633 17.5928C5.67924 19.466 6.60094 21.1729 7.82416 22.6161C7.44707 22.8945 7.24297 23.3746 7.33997 23.8649C7.47395 24.5422 8.13157 24.9826 8.8088 24.8486C9.17066 24.777 9.54092 24.6961 9.91875 24.6061C12.1609 26.3171 14.9618 27.3333 18 27.3333ZM9.91875 24.6061C9.1507 24.02 8.44819 23.3523 7.82416 22.6161C7.96788 22.5099 8.13673 22.4331 8.32362 22.3961C9.98481 22.0675 11.8852 21.5139 13.9263 20.7476C14.5727 20.505 15.2933 20.8322 15.5359 21.4786C15.7786 22.1249 15.4513 22.8455 14.805 23.0881C13.0888 23.7324 11.4422 24.2432 9.91875 24.6061ZM30.8462 10.4162C30.8114 10.4443 30.7779 10.4747 30.7456 10.5071C29.6015 11.6595 28.1329 12.8894 26.3979 14.1255C25.8357 14.526 25.7046 15.3066 26.1052 15.8688C26.5058 16.4311 27.2863 16.5621 27.8486 16.1615C29.1348 15.2451 30.3011 14.3186 31.3203 13.4054C31.2751 12.3742 31.1127 11.3735 30.8462 10.4162ZM32.8944 2.96536C32.2226 2.80625 31.5491 3.22184 31.39 3.89361C31.2309 4.56538 31.6464 5.23894 32.3182 5.39806C32.975 5.55361 33.2279 5.78537 33.322 5.93566C33.4276 6.10444 33.5437 6.54549 33.0605 7.51558C32.7527 8.13352 33.0041 8.88398 33.622 9.19179C34.24 9.4996 34.9904 9.2482 35.2983 8.63026C35.9277 7.36668 36.237 5.8814 35.4413 4.60966C34.8677 3.69285 33.9026 3.20416 32.8944 2.96536ZM2.69135 21.0835C2.90095 20.4257 2.53764 19.7226 1.87988 19.513C1.22211 19.3034 0.518967 19.6667 0.309364 20.3245C-0.0101378 21.3271 -0.0441012 22.4288 0.55814 23.3914C1.31291 24.5978 2.73589 25.0688 4.14846 25.204C4.83567 25.2698 5.44609 24.766 5.51186 24.0788C5.57764 23.3916 5.07386 22.7812 4.38664 22.7154C3.22939 22.6046 2.80591 22.2706 2.67751 22.0654C2.59465 21.933 2.50798 21.6589 2.69135 21.0835ZM24.2507 18.5067C24.8433 18.1524 25.0364 17.3848 24.6821 16.7923C24.3278 16.1998 23.5603 16.0067 22.9678 16.3609C22.1652 16.8408 21.329 17.3135 20.4635 17.7747C19.5742 18.2484 18.6887 18.6915 17.8138 19.1025C17.1889 19.396 16.9203 20.1405 17.2139 20.7653C17.5074 21.3902 18.2519 21.6588 18.8767 21.3653C19.7898 20.9363 20.7128 20.4745 21.639 19.981C22.5404 19.5008 23.4124 19.0079 24.2507 18.5067Z" fill="white"/>
</svg>
