<svg width="30" height="35" viewBox="0 0 30 35" fill="none" xmlns="http://www.w3.org/2000/svg">
<path fill-rule="evenodd" clip-rule="evenodd" d="M1.66669 12C2.35704 12 2.91669 12.5596 2.91669 13.25V14.9166C2.91669 21.5901 8.32658 27 15 27C21.6735 27 27.0834 21.5901 27.0834 14.9166V13.25C27.0834 12.5596 27.643 12 28.3334 12C29.0237 12 29.5834 12.5596 29.5834 13.25V14.9166C29.5834 22.5497 23.719 28.8131 16.25 29.4472V33.25C16.25 33.9403 15.6904 34.5 15 34.5C14.3097 34.5 13.75 33.9403 13.75 33.25V29.4472C6.28102 28.8131 0.416687 22.5497 0.416687 14.9166V13.25C0.416687 12.5596 0.976331 12 1.66669 12Z" fill="white"/>
<path fill-rule="evenodd" clip-rule="evenodd" d="M15 0.333313C9.70729 0.333313 5.41669 4.62392 5.41669 9.91665V14.9166C5.41669 20.2094 9.70729 24.5 15 24.5C20.2927 24.5 24.5834 20.2094 24.5834 14.9166V9.91665C24.5834 4.62392 20.2927 0.333313 15 0.333313ZM18.3334 16.1666C19.0237 16.1666 19.5834 15.607 19.5834 14.9166C19.5834 14.2263 19.0237 13.6666 18.3334 13.6666H11.6667C10.9763 13.6666 10.4167 14.2263 10.4167 14.9166C10.4167 15.607 10.9763 16.1666 11.6667 16.1666H18.3334ZM17.9167 9.91665C17.9167 10.607 17.357 11.1666 16.6667 11.1666H13.3334C12.643 11.1666 12.0834 10.607 12.0834 9.91665C12.0834 9.22629 12.643 8.66665 13.3334 8.66665H16.6667C17.357 8.66665 17.9167 9.22629 17.9167 9.91665Z" fill="white"/>
</svg>
