<svg width="34" height="34" viewBox="0 0 34 34" fill="none" xmlns="http://www.w3.org/2000/svg">
<path fill-rule="evenodd" clip-rule="evenodd" d="M15.7465 0.333374C7.51546 0.943676 0.943615 7.51552 0.333313 15.7466H5.30091C5.99318 15.7466 6.55438 16.3078 6.55438 17C6.55438 17.6923 5.99318 18.2535 5.30091 18.2535H0.333313C0.943615 26.4846 7.51546 33.0564 15.7465 33.6667V28.6991C15.7465 28.0068 16.3077 27.4456 17 27.4456C17.6923 27.4456 18.2535 28.0068 18.2535 28.6991V33.6667C26.4845 33.0564 33.0563 26.4846 33.6666 18.2535H28.6991C28.0068 18.2535 27.4456 17.6923 27.4456 17C27.4456 16.3078 28.0068 15.7466 28.6991 15.7466H33.6666C33.0563 7.51552 26.4845 0.943676 18.2535 0.333374V5.30097C18.2535 5.99324 17.6923 6.55444 17 6.55444C16.3077 6.55444 15.7465 5.99324 15.7465 5.30097V0.333374ZM12.4039 17C12.4039 16.3078 12.9651 15.7466 13.6574 15.7466H15.7465V13.6574C15.7465 12.9652 16.3077 12.404 17 12.404C17.6923 12.404 18.2535 12.9652 18.2535 13.6574V15.7466H20.3426C21.0348 15.7466 21.596 16.3078 21.596 17C21.596 17.6923 21.0348 18.2535 20.3426 18.2535H18.2535V20.3426C18.2535 21.0349 17.6923 21.5961 17 21.5961C16.3077 21.5961 15.7465 21.0349 15.7465 20.3426V18.2535H13.6574C12.9651 18.2535 12.4039 17.6923 12.4039 17Z" fill="white"/>
</svg>
