<svg width="34" height="34" viewBox="0 0 34 34" fill="none" xmlns="http://www.w3.org/2000/svg">
<path fill-rule="evenodd" clip-rule="evenodd" d="M15.7464 0.333252C7.5154 0.943554 0.943554 7.5154 0.333252 15.7464H5.30084C5.99312 15.7464 6.55432 16.3076 6.55432 16.9999C6.55432 17.6922 5.99312 18.2534 5.30084 18.2534H0.333252C0.943554 26.4844 7.5154 33.0563 15.7464 33.6666V28.699C15.7464 28.0067 16.3076 27.4455 16.9999 27.4455C17.6922 27.4455 18.2534 28.0067 18.2534 28.699V33.6666C26.4844 33.0563 33.0563 26.4844 33.6666 18.2534H28.699C28.0067 18.2534 27.4455 17.6922 27.4455 16.9999C27.4455 16.3076 28.0067 15.7464 28.699 15.7464H33.6666C33.0563 7.5154 26.4844 0.943554 18.2534 0.333252V5.30084C18.2534 5.99312 17.6922 6.55432 16.9999 6.55432C16.3076 6.55432 15.7464 5.99312 15.7464 5.30084V0.333252ZM12.4039 16.9999C12.4039 16.3076 12.9651 15.7464 13.6573 15.7464H15.7464V13.6573C15.7464 12.9651 16.3076 12.4039 16.9999 12.4039C17.6922 12.4039 18.2534 12.9651 18.2534 13.6573V15.7464H20.3425C21.0348 15.7464 21.596 16.3076 21.596 16.9999C21.596 17.6922 21.0348 18.2534 20.3425 18.2534H18.2534V20.3425C18.2534 21.0348 17.6922 21.596 16.9999 21.596C16.3076 21.596 15.7464 21.0348 15.7464 20.3425V18.2534H13.6573C12.9651 18.2534 12.4039 17.6922 12.4039 16.9999Z" fill="#8167E6"/>
</svg>
