<svg width="32" height="34" viewBox="0 0 32 34" fill="none" xmlns="http://www.w3.org/2000/svg">
<path d="M21.7823 13.5863C23.9981 13.5862 25.8862 13.5861 27.3933 13.7567C27.6492 13.7856 27.9041 13.8204 28.1572 13.8629C29.0439 14.0117 29.9078 14.2555 30.707 14.6771V13.2596C30.7071 11.7447 30.7071 10.4879 30.5649 9.48585C30.4148 8.42831 30.0876 7.49089 29.3057 6.72067C29.1782 6.59504 29.0436 6.47579 28.9025 6.36336C28.0495 5.68364 27.027 5.40566 25.8695 5.27673C24.7543 5.15251 23.3495 5.15253 21.6274 5.15256L21.0395 5.15256C19.4027 5.15256 18.8159 5.14303 18.2843 5.0088C17.9721 4.92995 17.6725 4.81984 17.3913 4.68122C16.9175 4.4477 16.5047 4.09594 15.3454 3.06878L14.5552 2.36872C14.2234 2.07474 13.997 1.87408 13.7543 1.69584C12.7132 0.931228 11.4455 0.46878 10.1183 0.358819C9.80924 0.333215 9.49387 0.33324 9.0218 0.333279L8.82778 0.333267C7.75999 0.333088 7.05529 0.33297 6.4434 0.435253C3.76866 0.882365 1.60574 2.7523 1.07891 5.22616C0.95905 5.78899 0.95924 6.43383 0.959515 7.36413L0.959542 14.6771C1.75872 14.2555 2.62262 14.0117 3.50933 13.8629C3.76243 13.8204 4.01739 13.7856 4.27323 13.7567C5.78037 13.5861 7.66845 13.5862 9.88425 13.5863H21.7823Z" fill="white"/>
<path fill-rule="evenodd" clip-rule="evenodd" d="M0.596524 18.2979C-0.420463 19.867 -0.000739276 22.0486 0.838709 26.4118C1.44301 29.5527 1.74516 31.1232 2.79205 32.1654C3.06367 32.4358 3.36757 32.6754 3.69766 32.8796C4.96991 33.6666 6.65898 33.6666 10.0371 33.6666H21.6296C25.0077 33.6666 26.6968 33.6666 27.969 32.8796C28.2991 32.6754 28.603 32.4358 28.8746 32.1654C29.9215 31.1232 30.2237 29.5527 30.828 26.4118C31.6674 22.0486 32.0871 19.867 31.0701 18.2979C30.8106 17.8975 30.4906 17.5351 30.1201 17.2222C28.6685 15.9959 26.3222 15.9959 21.6296 15.9959H10.0371C5.34446 15.9959 2.99813 15.9959 1.54653 17.2222C1.1761 17.5351 0.856049 17.8975 0.596524 18.2979ZM11.1586 25.6345C11.1586 24.9691 11.7294 24.4296 12.4335 24.4296H19.2329C19.937 24.4296 20.5078 24.9691 20.5078 25.6345C20.5078 26.2999 19.937 26.8393 19.2329 26.8393H12.4335C11.7294 26.8393 11.1586 26.2999 11.1586 25.6345Z" fill="white"/>
</svg>
