<svg width="48" height="48" viewBox="0 0 48 48" fill="none" xmlns="http://www.w3.org/2000/svg">
<rect width="48" height="48" rx="10" fill="white"/>
<path d="M14 18C14 16.1144 14 15.1716 14.5858 14.5858C15.1716 14 16.1144 14 18 14C19.8856 14 20.8284 14 21.4142 14.5858C22 15.1716 22 16.1144 22 18V30C22 31.8856 22 32.8284 21.4142 33.4142C20.8284 34 19.8856 34 18 34C16.1144 34 15.1716 34 14.5858 33.4142C14 32.8284 14 31.8856 14 30V18Z" fill="#191A29"/>
<path d="M26 18C26 16.1144 26 15.1716 26.5858 14.5858C27.1716 14 28.1144 14 30 14C31.8856 14 32.8284 14 33.4142 14.5858C34 15.1716 34 16.1144 34 18V30C34 31.8856 34 32.8284 33.4142 33.4142C32.8284 34 31.8856 34 30 34C28.1144 34 27.1716 34 26.5858 33.4142C26 32.8284 26 31.8856 26 30V18Z" fill="#191A29"/>
</svg>
