<svg width="30" height="35" viewBox="0 0 30 35" fill="none" xmlns="http://www.w3.org/2000/svg">
<path fill-rule="evenodd" clip-rule="evenodd" d="M1.66667 11.9999C2.35702 11.9999 2.91667 12.5596 2.91667 13.2499V14.9166C2.91667 21.59 8.32656 26.9999 15 26.9999C21.6734 26.9999 27.0833 21.59 27.0833 14.9166V13.2499C27.0833 12.5596 27.643 11.9999 28.3333 11.9999C29.0237 11.9999 29.5833 12.5596 29.5833 13.2499V14.9166C29.5833 22.5497 23.719 28.8131 16.25 29.4471V33.2499C16.25 33.9403 15.6904 34.4999 15 34.4999C14.3096 34.4999 13.75 33.9403 13.75 33.2499V29.4471C6.281 28.8131 0.416668 22.5497 0.416668 14.9166V13.2499C0.416668 12.5596 0.976312 11.9999 1.66667 11.9999Z" fill="white"/>
<path fill-rule="evenodd" clip-rule="evenodd" d="M15 0.333252C9.70727 0.333252 5.41667 4.62386 5.41667 9.91659V14.9166C5.41667 20.2093 9.70727 24.4999 15 24.4999C20.2927 24.4999 24.5833 20.2093 24.5833 14.9166V9.91659C24.5833 4.62386 20.2927 0.333252 15 0.333252ZM18.3333 16.1666C19.0237 16.1666 19.5833 15.6069 19.5833 14.9166C19.5833 14.2262 19.0237 13.6666 18.3333 13.6666H11.6667C10.9763 13.6666 10.4167 14.2262 10.4167 14.9166C10.4167 15.6069 10.9763 16.1666 11.6667 16.1666H18.3333ZM17.9167 9.91659C17.9167 10.6069 17.357 11.1666 16.6667 11.1666H13.3333C12.643 11.1666 12.0833 10.6069 12.0833 9.91659C12.0833 9.22623 12.643 8.66659 13.3333 8.66659H16.6667C17.357 8.66659 17.9167 9.22623 17.9167 9.91659Z" fill="white"/>
</svg>
