<svg width="40" height="40" viewBox="0 0 40 40" fill="none" xmlns="http://www.w3.org/2000/svg">
<path fill-rule="evenodd" clip-rule="evenodd" d="M6.66663 14.9999C7.35698 14.9999 7.91663 15.5596 7.91663 16.2499V17.9166C7.91663 24.59 13.3265 29.9999 20 29.9999C26.6734 29.9999 32.0833 24.59 32.0833 17.9166V16.2499C32.0833 15.5596 32.6429 14.9999 33.3333 14.9999C34.0236 14.9999 34.5833 15.5596 34.5833 16.2499V17.9166C34.5833 25.5497 28.719 31.8131 21.25 32.4471V36.2499C21.25 36.9403 20.6903 37.4999 20 37.4999C19.3096 37.4999 18.75 36.9403 18.75 36.2499V32.4471C11.281 31.8131 5.41663 25.5497 5.41663 17.9166V16.2499C5.41663 15.5596 5.97627 14.9999 6.66663 14.9999Z" fill="#8167E6"/>
<path fill-rule="evenodd" clip-rule="evenodd" d="M20 3.33325C14.7072 3.33325 10.4166 7.62386 10.4166 12.9166V17.9166C10.4166 23.2093 14.7072 27.4999 20 27.4999C25.2927 27.4999 29.5833 23.2093 29.5833 17.9166V12.9166C29.5833 7.62386 25.2927 3.33325 20 3.33325ZM23.3333 19.1666C24.0236 19.1666 24.5833 18.6069 24.5833 17.9166C24.5833 17.2262 24.0236 16.6666 23.3333 16.6666H16.6666C15.9763 16.6666 15.4166 17.2262 15.4166 17.9166C15.4166 18.6069 15.9763 19.1666 16.6666 19.1666H23.3333ZM22.9166 12.9166C22.9166 13.6069 22.357 14.1666 21.6666 14.1666H18.3333C17.6429 14.1666 17.0833 13.6069 17.0833 12.9166C17.0833 12.2262 17.6429 11.6666 18.3333 11.6666H21.6666C22.357 11.6666 22.9166 12.2262 22.9166 12.9166Z" fill="#8167E6"/>
</svg>
