<svg width="30" height="34" viewBox="0 0 30 34" fill="none" xmlns="http://www.w3.org/2000/svg">
<path fill-rule="evenodd" clip-rule="evenodd" d="M1.95262 2.28587C0 4.2385 0 7.38119 0 13.6666V20.3333C0 26.6186 0 29.7613 1.95262 31.714C3.90524 33.6666 7.04794 33.6666 13.3333 33.6666H16.6667C22.9521 33.6666 26.0948 33.6666 28.0474 31.714C30 29.7613 30 26.6186 30 20.3333V13.6666C30 7.38119 30 4.2385 28.0474 2.28587C26.0948 0.333252 22.9521 0.333252 16.6667 0.333252H13.3333C7.04794 0.333252 3.90524 0.333252 1.95262 2.28587ZM16.25 6.99992C16.25 6.30956 15.6903 5.74992 15 5.74992C14.3096 5.74992 13.75 6.30956 13.75 6.99992V9.08325H11.6666C10.9763 9.08325 10.4166 9.6429 10.4166 10.3333C10.4166 11.0236 10.9763 11.5833 11.6666 11.5833H13.75L13.75 13.6666C13.75 14.3569 14.3096 14.9166 15 14.9166C15.6903 14.9166 16.25 14.3569 16.25 13.6666V11.5833H18.3333C19.0236 11.5833 19.5833 11.0236 19.5833 10.3333C19.5833 9.6429 19.0236 9.08325 18.3333 9.08325H16.25V6.99992ZM8.33333 19.0833C7.64298 19.0833 7.08333 19.6429 7.08333 20.3333C7.08333 21.0236 7.64298 21.5833 8.33333 21.5833H21.6667C22.357 21.5833 22.9167 21.0236 22.9167 20.3333C22.9167 19.6429 22.357 19.0833 21.6667 19.0833H8.33333ZM10 25.7499C9.30964 25.7499 8.75 26.3096 8.75 26.9999C8.75 27.6903 9.30964 28.2499 10 28.2499H20C20.6904 28.2499 21.25 27.6903 21.25 26.9999C21.25 26.3096 20.6904 25.7499 20 25.7499H10Z" fill="white"/>
</svg>
