<svg width="18" height="18" viewBox="0 0 18 18" fill="none" xmlns="http://www.w3.org/2000/svg">
<path fill-rule="evenodd" clip-rule="evenodd" d="M9 17.3334C5.07163 17.3334 3.10744 17.3334 1.88705 16.113C0.666666 14.8926 0.666666 12.9285 0.666666 9.00008C0.666666 5.07171 0.666666 3.10752 1.88705 1.88714C3.10744 0.666748 5.07163 0.666748 9 0.666748C12.9284 0.666748 14.8926 0.666748 16.1129 1.88714C17.3333 3.10752 17.3333 5.07171 17.3333 9.00008C17.3333 12.9285 17.3333 14.8926 16.1129 16.113C14.8926 17.3334 12.9284 17.3334 9 17.3334ZM12.3586 6.47481C12.6027 6.71888 12.6027 7.11461 12.3586 7.35869L8.19194 11.5254C7.94786 11.7694 7.55214 11.7694 7.30806 11.5254L5.64139 9.85869C5.39731 9.61461 5.39731 9.21888 5.64139 8.97481C5.88547 8.73073 6.2812 8.73073 6.52527 8.97481L7.75 10.1995L11.4747 6.47481C11.7188 6.23073 12.1145 6.23073 12.3586 6.47481Z" fill="white"/>
</svg>
