<svg width="30" height="35" viewBox="0 0 30 35" fill="none" xmlns="http://www.w3.org/2000/svg">
<path fill-rule="evenodd" clip-rule="evenodd" d="M15 34.6666C23.2843 34.6666 30 27.9509 30 19.6666C30 11.3823 23.2843 4.66659 15 4.66659C6.71573 4.66659 0 11.3823 0 19.6666C0 27.9509 6.71573 34.6666 15 34.6666ZM15 11.7499C15.6904 11.7499 16.25 12.3096 16.25 12.9999V19.6666C16.25 20.3569 15.6904 20.9166 15 20.9166C14.3096 20.9166 13.75 20.3569 13.75 19.6666V12.9999C13.75 12.3096 14.3096 11.7499 15 11.7499Z" fill="#8167E6"/>
<path fill-rule="evenodd" clip-rule="evenodd" d="M10.4167 1.33325C10.4167 0.642896 10.9763 0.083252 11.6667 0.083252H18.3333C19.0237 0.083252 19.5833 0.642896 19.5833 1.33325C19.5833 2.02361 19.0237 2.58325 18.3333 2.58325H11.6667C10.9763 2.58325 10.4167 2.02361 10.4167 1.33325Z" fill="#8167E6"/>
</svg>
