<svg width="30" height="35" viewBox="0 0 30 35" fill="none" xmlns="http://www.w3.org/2000/svg">
<path fill-rule="evenodd" clip-rule="evenodd" d="M15 34.6667C23.2843 34.6667 30 27.951 30 19.6667C30 11.3824 23.2843 4.66671 15 4.66671C6.71573 4.66671 0 11.3824 0 19.6667C0 27.951 6.71573 34.6667 15 34.6667ZM15 11.75C15.6904 11.75 16.25 12.3097 16.25 13V19.6667C16.25 20.3571 15.6904 20.9167 15 20.9167C14.3096 20.9167 13.75 20.3571 13.75 19.6667V13C13.75 12.3097 14.3096 11.75 15 11.75Z" fill="white"/>
<path fill-rule="evenodd" clip-rule="evenodd" d="M10.4167 1.33337C10.4167 0.643018 10.9763 0.083374 11.6667 0.083374H18.3333C19.0237 0.083374 19.5833 0.643018 19.5833 1.33337C19.5833 2.02373 19.0237 2.58337 18.3333 2.58337H11.6667C10.9763 2.58337 10.4167 2.02373 10.4167 1.33337Z" fill="white"/>
</svg>
