<svg width="34" height="36" viewBox="0 0 34 36" fill="none" xmlns="http://www.w3.org/2000/svg">
<path d="M23.25 1.33325C23.25 0.642896 22.6904 0.083252 22 0.083252C21.3097 0.083252 20.75 0.642896 20.75 1.33325V34.6666C20.75 35.3569 21.3097 35.9166 22 35.9166C22.6904 35.9166 23.25 35.3569 23.25 34.6666V31.3239C27.6432 31.2779 30.0902 31.0045 31.7141 29.3806C33.6667 27.428 33.6667 24.2853 33.6667 17.9999C33.6667 11.7145 33.6667 8.57183 31.7141 6.61921C30.0902 4.99532 27.6432 4.72193 23.25 4.6759V1.33325Z" fill="white"/>
<path fill-rule="evenodd" clip-rule="evenodd" d="M13.6667 31.3333C7.38128 31.3333 4.23859 31.3333 2.28597 29.3806C0.333344 27.428 0.333344 24.2853 0.333344 17.9999C0.333344 11.7145 0.333344 8.57183 2.28597 6.61921C4.23859 4.66659 7.38128 4.66659 13.6667 4.66659H18.6667V31.3333H13.6667ZM8.36305 10.9788C8.86299 10.9165 9.47382 10.9165 10.1397 10.9166H13.8603C14.5263 10.9165 15.1371 10.9165 15.637 10.9788C16.1848 11.0471 16.7687 11.2069 17.2708 11.653C17.3564 11.7291 17.4375 11.8102 17.5136 11.8959C17.9597 12.3979 18.1195 12.9818 18.1878 13.5296C18.2502 14.0296 18.2501 14.6404 18.25 15.3063L18.25 15.3749C18.25 16.0653 17.6904 16.6249 17 16.6249C16.3097 16.6249 15.75 16.0653 15.75 15.3749C15.75 14.6174 15.7477 14.1654 15.707 13.8391C15.6663 13.5127 15.3276 13.4596 15.3276 13.4596C15.0012 13.4189 14.5492 13.4166 13.7917 13.4166H13.25V22.5833H15.3334C16.0237 22.5833 16.5834 23.1429 16.5834 23.8333C16.5834 24.5236 16.0237 25.0833 15.3334 25.0833H8.66669C7.97633 25.0833 7.41669 24.5236 7.41669 23.8333C7.41669 23.1429 7.97633 22.5833 8.66669 22.5833H10.75V13.4166H10.2084C9.4508 13.4166 8.99886 13.4189 8.67248 13.4596C8.67248 13.4596 8.33372 13.5127 8.29301 13.8391C8.2523 14.1654 8.25002 14.6174 8.25002 15.3749C8.25002 16.0653 7.69038 16.6249 7.00002 16.6249C6.30966 16.6249 5.75002 16.0653 5.75002 15.3749L5.75002 15.3063C5.74994 14.6404 5.74988 14.0296 5.81223 13.5296C5.88056 12.9818 6.04034 12.3979 6.48645 11.8959C6.56256 11.8102 6.64364 11.7291 6.72928 11.653C7.23131 11.2069 7.81526 11.0471 8.36305 10.9788Z" fill="white"/>
</svg>
