<svg width="34" height="34" viewBox="0 0 34 34" fill="none" xmlns="http://www.w3.org/2000/svg">
<path d="M33.6667 11.1666C33.6667 5.1835 28.8165 0.333252 22.8334 0.333252C19.3619 0.333252 16.2718 1.97042 14.2892 4.51193C22.7452 4.83885 29.5 11.7972 29.5 20.3333C29.5 20.5171 29.4969 20.7002 29.4907 20.8826L30.0445 21.0307C31.655 21.4617 33.1284 19.9882 32.6975 18.3777L32.4852 17.5843C32.3138 16.9434 32.4168 16.2663 32.6925 15.6628C33.3181 14.2932 33.6667 12.7706 33.6667 11.1666Z" fill="#8167E6"/>
<path fill-rule="evenodd" clip-rule="evenodd" d="M27 20.3333C27 27.6971 21.0305 33.6666 13.6667 33.6666C11.6075 33.6666 9.65738 33.1998 7.9163 32.3663C7.31789 32.0798 6.63993 31.9792 5.99902 32.1507L3.95562 32.6974C2.34507 33.1283 0.871631 31.6549 1.30256 30.0443L1.8493 28.0009C2.02078 27.36 1.9202 26.6821 1.63371 26.0837C0.800167 24.3426 0.333374 22.3924 0.333374 20.3333C0.333374 12.9695 6.30291 6.99992 13.6667 6.99992C21.0305 6.99992 27 12.9695 27 20.3333ZM7.83337 21.9999C8.75385 21.9999 9.50004 21.2537 9.50004 20.3333C9.50004 19.4128 8.75385 18.6666 7.83337 18.6666C6.9129 18.6666 6.16671 19.4128 6.16671 20.3333C6.16671 21.2537 6.9129 21.9999 7.83337 21.9999ZM13.6667 21.9999C14.5872 21.9999 15.3334 21.2537 15.3334 20.3333C15.3334 19.4128 14.5872 18.6666 13.6667 18.6666C12.7462 18.6666 12 19.4128 12 20.3333C12 21.2537 12.7462 21.9999 13.6667 21.9999ZM19.5 21.9999C20.4205 21.9999 21.1667 21.2537 21.1667 20.3333C21.1667 19.4128 20.4205 18.6666 19.5 18.6666C18.5796 18.6666 17.8334 19.4128 17.8334 20.3333C17.8334 21.2537 18.5796 21.9999 19.5 21.9999Z" fill="#8167E6"/>
</svg>
