<svg width="34" height="34" viewBox="0 0 34 34" fill="none" xmlns="http://www.w3.org/2000/svg">
<path d="M33.6667 11.1666C33.6667 5.18356 28.8164 0.333313 22.8333 0.333313C19.3619 0.333313 16.2718 1.97048 14.2892 4.51199C22.7452 4.83891 29.5 11.7973 29.5 20.3333C29.5 20.5172 29.4969 20.7003 29.4907 20.8826L30.0444 21.0308C31.655 21.4617 33.1284 19.9883 32.6975 18.3777L32.4852 17.5843C32.3137 16.9434 32.4168 16.2663 32.6925 15.6628C33.3181 14.2933 33.6667 12.7707 33.6667 11.1666Z" fill="white"/>
<path fill-rule="evenodd" clip-rule="evenodd" d="M27 20.3333C27 27.6971 21.0305 33.6666 13.6667 33.6666C11.6075 33.6666 9.65735 33.1999 7.91627 32.3663C7.31786 32.0798 6.6399 31.9792 5.99899 32.1507L3.95559 32.6975C2.34504 33.1284 0.871601 31.655 1.30253 30.0444L1.84927 28.001C2.02075 27.3601 1.92017 26.6821 1.63368 26.0837C0.800136 24.3426 0.333344 22.3925 0.333344 20.3333C0.333344 12.9695 6.30288 6.99998 13.6667 6.99998C21.0305 6.99998 27 12.9695 27 20.3333ZM7.83334 22C8.75382 22 9.50001 21.2538 9.50001 20.3333C9.50001 19.4128 8.75382 18.6666 7.83334 18.6666C6.91287 18.6666 6.16668 19.4128 6.16668 20.3333C6.16668 21.2538 6.91287 22 7.83334 22ZM13.6667 22C14.5872 22 15.3333 21.2538 15.3333 20.3333C15.3333 19.4128 14.5872 18.6666 13.6667 18.6666C12.7462 18.6666 12 19.4128 12 20.3333C12 21.2538 12.7462 22 13.6667 22ZM19.5 22C20.4205 22 21.1667 21.2538 21.1667 20.3333C21.1667 19.4128 20.4205 18.6666 19.5 18.6666C18.5795 18.6666 17.8333 19.4128 17.8333 20.3333C17.8333 21.2538 18.5795 22 19.5 22Z" fill="white"/>
</svg>
