<svg width="40" height="40" viewBox="0 0 40 40" fill="none" xmlns="http://www.w3.org/2000/svg">
<path fill-rule="evenodd" clip-rule="evenodd" d="M3.33333 11.0569C3.33333 6.79128 6.7913 3.33331 11.0569 3.33331C15.3225 3.33331 18.7805 6.79128 18.7805 11.0569C18.7805 15.3225 15.3225 18.7805 11.0569 18.7805C6.7913 18.7805 3.33333 15.3225 3.33333 11.0569Z" fill="white"/>
<path fill-rule="evenodd" clip-rule="evenodd" d="M21.2195 28.9431C21.2195 24.6775 24.6775 21.2195 28.9431 21.2195C33.2087 21.2195 36.6667 24.6775 36.6667 28.9431C36.6667 33.2087 33.2087 36.6666 28.9431 36.6666C24.6775 36.6666 21.2195 33.2087 21.2195 28.9431Z" fill="white"/>
<path d="M3.33333 29.1666C3.33333 25.6311 3.33333 23.8633 4.43168 22.765C5.53003 21.6666 7.2978 21.6666 10.8333 21.6666C14.3689 21.6666 16.1366 21.6666 17.235 22.765C18.3333 23.8633 18.3333 25.6311 18.3333 29.1666C18.3333 32.7022 18.3333 34.4699 17.235 35.5683C16.1366 36.6666 14.3689 36.6666 10.8333 36.6666C7.2978 36.6666 5.53003 36.6666 4.43168 35.5683C3.33333 34.4699 3.33333 32.7022 3.33333 29.1666Z" fill="white"/>
<path d="M21.6667 10.8333C21.6667 7.29778 21.6667 5.53001 22.765 4.43166C23.8634 3.33331 25.6311 3.33331 29.1667 3.33331C32.7022 3.33331 34.47 3.33331 35.5683 4.43166C36.6667 5.53001 36.6667 7.29778 36.6667 10.8333C36.6667 14.3688 36.6667 16.1366 35.5683 17.235C34.47 18.3333 32.7022 18.3333 29.1667 18.3333C25.6311 18.3333 23.8634 18.3333 22.765 17.235C21.6667 16.1366 21.6667 14.3688 21.6667 10.8333Z" fill="white"/>
</svg>
