<svg width="40" height="40" viewBox="0 0 40 40" fill="none" xmlns="http://www.w3.org/2000/svg">
<path fill-rule="evenodd" clip-rule="evenodd" d="M3.33331 11.0568C3.33331 6.79122 6.79128 3.33325 11.0569 3.33325C15.3225 3.33325 18.7805 6.79122 18.7805 11.0568C18.7805 15.3224 15.3225 18.7804 11.0569 18.7804C6.79128 18.7804 3.33331 15.3224 3.33331 11.0568Z" fill="#8167E6"/>
<path fill-rule="evenodd" clip-rule="evenodd" d="M21.2195 28.943C21.2195 24.6774 24.6775 21.2194 28.9431 21.2194C33.2087 21.2194 36.6666 24.6774 36.6666 28.943C36.6666 33.2086 33.2087 36.6666 28.9431 36.6666C24.6775 36.6666 21.2195 33.2086 21.2195 28.943Z" fill="#8167E6"/>
<path d="M3.33331 29.1666C3.33331 25.6311 3.33331 23.8633 4.43166 22.7649C5.53001 21.6666 7.29778 21.6666 10.8333 21.6666C14.3688 21.6666 16.1366 21.6666 17.235 22.7649C18.3333 23.8633 18.3333 25.6311 18.3333 29.1666C18.3333 32.7021 18.3333 34.4699 17.235 35.5682C16.1366 36.6666 14.3688 36.6666 10.8333 36.6666C7.29778 36.6666 5.53001 36.6666 4.43166 35.5682C3.33331 34.4699 3.33331 32.7021 3.33331 29.1666Z" fill="#8167E6"/>
<path d="M21.6666 10.8333C21.6666 7.29772 21.6666 5.52995 22.765 4.4316C23.8633 3.33325 25.6311 3.33325 29.1666 3.33325C32.7022 3.33325 34.4699 3.33325 35.5683 4.4316C36.6666 5.52995 36.6666 7.29772 36.6666 10.8333C36.6666 14.3688 36.6666 16.1366 35.5683 17.2349C34.4699 18.3333 32.7022 18.3333 29.1666 18.3333C25.6311 18.3333 23.8633 18.3333 22.765 17.2349C21.6666 16.1366 21.6666 14.3688 21.6666 10.8333Z" fill="#8167E6"/>
</svg>
